<svg xmlns="http://www.w3.org/2000/svg" style="display: none;"><symbol id="rank" viewBox="0 0 512 512"><title>rank</title><path d="M506.19,295.974c-0.489-0.228-49.174-22.837-120.44-71.424c-70.527-48.087-119.087-113.619-119.571-114.272 c-2-2.717-5.033-4.38-8.402-4.522c-3.326-0.228-6.571,1.239-8.794,3.772c-0.723,0.826-72.674,82.532-120.321,115.022 C80.375,257.473,7.332,295.876,6.609,296.256C2.962,298.18,0,301.974,0,306.093v89.043c0,4.022,2.864,7.728,6.37,9.696 c1.695,0.956,3.924,1.435,5.804,1.435c2.005,0,4.18-0.543,5.951-1.619c0.679-0.413,68.712-41.761,134.418-89.554 c50.734-36.891,88.984-75.652,105.005-92.837c17.603,18.174,60.343,60.674,104.576,92.837 c56.016,40.739,133.467,89.011,134.244,89.489c3.435,2.131,7.071,2.239,10.593,0.283c3.538-1.956,5.038-5.685,5.038-9.728v-89.043 C512,301.735,510.152,297.778,506.19,295.974z M489.739,374.952c-25.043-16.478-75.647-49.098-115.196-77.859 c-54.772-39.837-108.799-98.163-109.343-98.75c-2.146-2.315-4.63-3.337-8.174-3.554c-3.157,0.054-6.06,1.446-8.13,3.837 c-0.446,0.511-45.772,51.685-110.098,98.467c-45.332,32.967-91.495,62.848-116.538,78.033v-62.37 c19.478-9.967,76.549-41.37,118.272-69.815c40.212-27.413,94.728-85.348,115.929-108.728 c17.228,21.261,59.136,69.804,116.223,108.728c58.614,39.967,103.141,62.391,117.054,70.163V374.952z"/></symbol><symbol id="rank-1" viewBox="0 0 512 512"><title>rank-1</title><g> <g> <path d="M506.196,218.067c-0.489-0.228-49.174-22.837-120.446-71.424C315.218,98.556,266.663,33.023,266.174,32.371 c-2-2.718-5.033-4.38-8.392-4.522c-3.337-0.294-6.576,1.239-8.793,3.772c-0.728,0.826-72.685,82.532-120.326,115.022 C80.38,179.567,7.337,217.969,6.609,218.349C2.967,220.273,0,224.067,0,228.186v89.043c0,4.022,2.859,7.728,6.37,9.696 c1.695,0.956,3.924,1.435,5.804,1.435c2,0,4.174-0.543,5.946-1.62c0.685-0.413,68.717-41.761,134.424-89.554 c50.739-36.891,88.978-75.652,105-92.837c17.609,18.174,60.348,60.674,104.587,92.837 c56.011,40.739,133.468,89.011,134.239,89.489c3.424,2.131,7.049,2.239,10.593,0.283c3.533-1.956,5.038-5.685,5.038-9.728v-89.043 C512,223.828,510.152,219.871,506.196,218.067z M489.739,297.045c-25.043-16.478-75.652-49.098-115.196-77.859 c-54.772-39.837-108.804-98.163-109.348-98.75c-2.152-2.326-5.402-3.565-8.163-3.554c-3.163,0.054-6.065,1.446-8.13,3.837 c-0.446,0.511-45.772,51.685-110.098,98.467c-45.337,32.968-91.5,62.848-116.543,78.033V234.86 c19.478-9.978,76.554-41.38,118.272-69.826c40.206-27.413,94.728-85.348,115.935-108.728 c17.217,21.261,59.13,69.804,116.217,108.728c58.62,39.967,103.141,62.391,117.054,70.163V297.045z"/> </g> </g><g> <g> <path d="M506.196,373.893c-0.489-0.228-49.174-22.837-120.446-71.424c-70.532-48.087-119.087-113.619-119.576-114.272 c-2-2.717-5.033-4.38-8.392-4.522c-3.337-0.283-6.576,1.239-8.793,3.772c-0.728,0.826-72.685,82.532-120.326,115.022 C80.38,335.393,7.337,373.795,6.609,374.175C2.967,376.099,0,379.893,0,384.012v89.044c0,4.022,2.859,7.728,6.37,9.696 c1.695,0.956,3.924,1.435,5.804,1.435c2,0,4.174-0.543,5.946-1.62c0.685-0.413,68.717-41.761,134.424-89.554 c50.739-36.891,88.978-75.652,105-92.837c17.609,18.174,60.348,60.674,104.587,92.837 c56.011,40.739,133.468,89.011,134.239,89.489c3.424,2.141,7.049,2.239,10.593,0.283c3.533-1.956,5.038-5.685,5.038-9.728v-89.044 C512,379.654,510.152,375.697,506.196,373.893z M489.739,452.871c-25.043-16.478-75.652-49.098-115.196-77.859 c-54.772-39.837-108.804-98.163-109.348-98.75c-2.152-2.315-5.402-3.359-8.163-3.554c-3.163,0.054-6.065,1.446-8.13,3.837 c-0.446,0.511-45.772,51.685-110.098,98.467c-45.337,32.968-91.5,62.848-116.543,78.033v-62.359 c19.478-9.978,76.554-41.38,118.272-69.826c40.206-27.413,94.728-85.348,115.935-108.728 c17.217,21.261,59.13,69.804,116.217,108.728c58.62,39.967,103.141,62.391,117.054,70.163V452.871z"/> </g> </g></symbol><symbol id="rank-2" viewBox="0 0 512 512"><title>rank-2</title><g> <g> <path d="M510.483,188.84c-1.647-2.422-4.379-3.461-7.31-3.461H346.356c-21.026-28.69-53.698-44.138-90.356-44.138 s-69.33,15.448-90.354,44.138H8.827c-2.931,0-5.664,1.039-7.31,3.461c-1.638,2.422-1.974,5.299-0.888,8.015l17.715,44.185 c0.002,0.004,0.004-0.041,0.006-0.037L36,285.099c0.002,0.007,0.004,0,0.006,0.004l17.589,44.382 c1.345,3.353,4.586,5.963,8.198,5.963H173.31c20.894,19.862,50.228,35.31,82.69,35.31c32.461,0,61.795-15.448,82.69-35.31h111.517 c3.612,0,6.854-2.616,8.198-5.97l17.589-44.179c0.002-0.004,0.004-0.117,0.006-0.121l17.649-44.226 c0.002-0.004,0.004-0.011,0.006-0.017l17.715-44.289C512.457,193.931,512.121,191.263,510.483,188.84z M32.456,229.517 l-10.595-26.483h132.384c-4.332,6.621-7.675,15.448-9.886,26.483H32.456z M50.112,273.655l-10.595-26.483h102.097 c-0.222,2.207-0.373,5.853-0.373,8.828c0,6.002,0.468,11.034,1.362,17.655H50.112z M67.767,317.793L57.174,291.31h89.651 c3.054,8.828,7.299,17.655,12.552,26.483H67.767z M256,352.267c-53.543,0-97.104-43.56-97.104-97.104 c0-53.543,43.56-97.104,97.104-97.104s97.104,43.56,97.104,97.104S309.543,352.267,256,352.267z M444.233,317.793h-91.608 c5.25-8.828,9.498-17.655,12.552-26.483h89.651L444.233,317.793z M461.888,273.655h-92.489c0.892-6.621,1.36-11.653,1.36-17.655 c0-2.974-0.149-6.621-0.373-8.828h102.097L461.888,273.655z M479.545,229.517H367.64c-2.211-11.034-5.554-19.862-9.886-26.483 h132.384L479.545,229.517z"/> </g> </g><g> <g> <path d="M331.56,230.621c-1.043-3.198-3.802-5.526-7.129-6.009l-41.81-6.086l-18.707-37.888c-2.965-6.035-12.862-6.035-15.827,0 l-18.707,37.888l-41.81,6.086c-3.328,0.483-6.086,2.81-7.129,6.009c-1.034,3.19-0.172,6.698,2.233,9.043l30.259,29.5 l-7.138,41.647c-0.569,3.31,0.793,6.655,3.509,8.629c2.733,1.983,6.328,2.241,9.302,0.672L256,300.448l37.397,19.664 c1.293,0.681,2.707,1.017,4.112,1.017c1.828,0,3.646-0.569,5.19-1.69c2.715-1.974,4.077-5.319,3.509-8.629l-7.138-41.647 l30.259-29.5C331.733,237.319,332.595,233.81,331.56,230.621z M283.422,259.759c-2.078,2.026-3.026,4.948-2.535,7.81l4.897,28.595 l-25.672-13.5c-1.293-0.681-2.698-1.017-4.112-1.017c-1.414,0-2.819,0.336-4.112,1.017l-25.672,13.5l4.897-28.595 c0.491-2.862-0.457-5.785-2.535-7.81l-20.776-20.25l28.707-4.181c2.879-0.414,5.362-2.224,6.647-4.828L256,204.483l12.845,26.017 c1.284,2.603,3.767,4.414,6.647,4.828l28.707,4.181L283.422,259.759z"/> </g> </g></symbol><symbol id="rank-3" viewBox="0 0 512 512"><title>rank-3</title><g> <g> <path d="M510.483,205.243c-1.647-2.422-4.379-3.461-7.31-3.461H346.356c-21.026-28.69-53.698-44.138-90.356-44.138 s-69.33,15.448-90.354,44.138H8.827c-2.931,0-5.664,1.039-7.31,3.461c-1.638,2.422-1.974,5.299-0.888,8.015l17.715,44.185 c0.004,0.004,0.004-0.041,0.009-0.037L36,301.502c0.004,0.007,0.004,0,0.009,0.004l17.586,44.382 c1.345,3.353,4.586,5.963,8.198,5.963H173.31c20.894,19.862,50.228,35.31,82.69,35.31c32.461,0,61.795-15.448,82.69-35.31h111.517 c3.612,0,6.854-2.616,8.198-5.97l17.589-44.179c0.002-0.004,0.004-0.117,0.006-0.121l17.649-44.227 c0.002-0.004,0.004-0.011,0.006-0.017l17.715-44.289C512.457,210.334,512.121,207.666,510.483,205.243z M32.455,245.92 l-10.593-26.483h132.384c-4.332,6.621-7.675,15.448-9.886,26.483H32.455z M50.112,290.058l-10.595-26.483h102.097 c-0.222,2.207-0.373,5.853-0.373,8.828c0,6.002,0.47,11.034,1.362,17.655H50.112z M67.767,334.196l-10.593-26.483h89.651 c3.054,8.828,7.3,17.655,12.552,26.483H67.767z M256,368.67c-53.543,0-97.104-43.56-97.104-97.104s43.56-97.104,97.104-97.104 s97.104,43.56,97.104,97.104S309.543,368.67,256,368.67z M444.233,334.196h-91.608c5.25-8.828,9.496-17.655,12.552-26.483h89.651 L444.233,334.196z M461.888,290.058h-92.489c0.892-6.621,1.36-11.653,1.36-17.655c0-2.974-0.151-6.621-0.373-8.828h102.097 L461.888,290.058z M479.545,245.92H367.64c-2.211-11.034-5.554-19.862-9.886-26.483h132.384L479.545,245.92z"/> </g> </g><g> <g> <path d="M331.56,247.023c-1.043-3.198-3.802-5.526-7.129-6.009l-41.81-6.086l-18.707-37.888c-2.965-6.035-12.862-6.035-15.827,0 l-18.707,37.888l-41.81,6.086c-3.328,0.483-6.086,2.81-7.129,6.009c-1.034,3.19-0.172,6.698,2.233,9.043l30.259,29.5 l-7.138,41.647c-0.569,3.31,0.793,6.655,3.509,8.629c2.733,1.983,6.336,2.241,9.302,0.672L256,316.851l37.397,19.664 c1.293,0.681,2.707,1.017,4.112,1.017c1.828,0,3.646-0.569,5.19-1.69c2.715-1.974,4.077-5.319,3.509-8.629l-7.138-41.647 l30.259-29.5C331.733,253.722,332.595,250.213,331.56,247.023z M283.422,276.161c-2.078,2.026-3.026,4.948-2.535,7.81 l4.897,28.595l-25.672-13.5c-1.293-0.681-2.698-1.017-4.112-1.017c-1.414,0-2.819,0.336-4.112,1.017l-25.672,13.5l4.897-28.595 c0.491-2.862-0.457-5.785-2.535-7.81l-20.776-20.25l28.707-4.181c2.879-0.414,5.362-2.224,6.647-4.828L256,220.885l12.845,26.017 c1.284,2.604,3.767,4.414,6.647,4.828l28.707,4.181L283.422,276.161z"/> </g> </g><g> <g> <path d="M174.828,128.239c-1.043-3.19-3.802-5.517-7.129-6l-12.81-1.862l-5.733-11.612c-2.965-6.035-12.862-6.035-15.827,0 l-5.733,11.612l-12.81,1.862c-3.328,0.483-6.086,2.81-7.129,6c-1.035,3.198-0.173,6.707,2.233,9.052l9.276,9.043l-2.19,12.759 c-0.569,3.31,0.793,6.655,3.509,8.629c2.733,1.991,6.336,2.241,9.302,0.672l11.457-6.026l11.457,6.026 c1.293,0.681,2.707,1.017,4.112,1.017c1.828,0,3.646-0.569,5.19-1.69c2.715-1.974,4.077-5.319,3.509-8.629l-2.19-12.759 l9.276-9.043C175,134.946,175.862,131.437,174.828,128.239z M145.095,144.446c-1.216-0.586-2.534-0.879-3.854-0.879 c-1.319,0-2.638,0.293-3.853,0.879c0.371-2.672-0.5-5.362-2.371-7.31c2.655-0.474,4.948-2.146,6.224-4.526 c1.276,2.379,3.569,4.052,6.224,4.526C145.595,139.083,144.724,141.773,145.095,144.446z"/> </g> </g><g> <g> <path d="M289.586,92.928c-1.043-3.19-3.802-5.517-7.129-6l-12.81-1.862l-5.733-11.612c-2.965-6.035-12.862-6.035-15.827,0 l-5.733,11.612l-12.81,1.862c-3.328,0.483-6.086,2.81-7.129,6c-1.035,3.198-0.173,6.707,2.233,9.052l9.276,9.043l-2.19,12.759 c-0.569,3.31,0.793,6.655,3.509,8.629c2.733,1.992,6.327,2.25,9.302,0.672L256,127.058l11.457,6.026 c1.293,0.681,2.707,1.017,4.112,1.017c1.828,0,3.646-0.569,5.19-1.69c2.715-1.974,4.078-5.319,3.509-8.629l-2.19-12.759 l9.276-9.043C289.759,99.635,290.621,96.127,289.586,92.928z M259.853,109.135c-1.216-0.586-2.534-0.879-3.853-0.879 c-1.319,0-2.638,0.293-3.853,0.879c0.371-2.672-0.5-5.362-2.371-7.31c2.655-0.474,4.948-2.146,6.224-4.526 c1.276,2.379,3.569,4.052,6.224,4.526C260.354,103.773,259.483,106.463,259.853,109.135z"/> </g> </g><g> <g> <path d="M395.517,128.239c-1.043-3.19-3.802-5.517-7.129-6l-12.81-1.862l-5.733-11.612c-2.965-6.035-12.862-6.035-15.827,0 l-5.733,11.612l-12.81,1.862c-3.328,0.483-6.086,2.81-7.129,6c-1.035,3.198-0.173,6.707,2.233,9.052l9.276,9.043l-2.19,12.759 c-0.569,3.31,0.793,6.655,3.509,8.629c2.724,1.991,6.336,2.241,9.302,0.672l11.457-6.026l11.457,6.026 c1.293,0.681,2.707,1.017,4.112,1.017c1.828,0,3.646-0.569,5.19-1.69c2.715-1.974,4.077-5.319,3.509-8.629l-2.19-12.759 l9.276-9.043C395.69,134.946,396.552,131.437,395.517,128.239z M365.785,144.446c-1.216-0.586-2.534-0.879-3.853-0.879 c-1.319,0-2.638,0.293-3.853,0.879c0.371-2.672-0.5-5.362-2.371-7.31c2.655-0.474,4.948-2.146,6.224-4.526 c1.276,2.379,3.569,4.052,6.224,4.526C366.285,139.083,365.414,141.773,365.785,144.446z"/> </g> </g><g> <g> <path d="M201.31,401.894c-1.043-3.19-3.802-5.517-7.129-6l-12.81-1.862l-5.733-11.612c-2.965-6.035-12.862-6.035-15.827,0 l-5.733,11.612l-12.81,1.862c-3.328,0.483-6.086,2.81-7.129,6c-1.035,3.198-0.173,6.707,2.233,9.052l9.276,9.043l-2.19,12.759 c-0.569,3.31,0.793,6.655,3.509,8.629c2.733,1.983,6.327,2.25,9.302,0.672l11.457-6.026l11.457,6.026 c1.293,0.681,2.707,1.017,4.112,1.017c1.828,0,3.646-0.569,5.19-1.69c2.715-1.974,4.077-5.319,3.509-8.629l-2.19-12.759 l9.276-9.043C201.483,408.601,202.345,405.093,201.31,401.894z M171.577,418.101c-1.216-0.586-2.534-0.879-3.853-0.879 c-1.319,0-2.638,0.293-3.854,0.879c0.371-2.672-0.5-5.362-2.371-7.31c2.655-0.474,4.948-2.146,6.224-4.526 c1.276,2.379,3.569,4.052,6.224,4.526C172.078,412.739,171.207,415.429,171.577,418.101z"/> </g> </g><g> <g> <path d="M369.035,401.894c-1.043-3.19-3.802-5.517-7.129-6l-12.81-1.862l-5.733-11.612c-2.965-6.035-12.862-6.035-15.827,0 l-5.733,11.612l-12.81,1.862c-3.328,0.483-6.086,2.81-7.129,6c-1.035,3.198-0.173,6.707,2.233,9.052l9.276,9.043l-2.19,12.759 c-0.569,3.31,0.793,6.655,3.509,8.629c2.741,1.983,6.327,2.25,9.302,0.672l11.457-6.026l11.457,6.026 c1.293,0.681,2.707,1.017,4.112,1.017c1.828,0,3.646-0.569,5.19-1.69c2.715-1.974,4.077-5.319,3.508-8.629l-2.19-12.759 l9.276-9.043C369.207,408.601,370.069,405.093,369.035,401.894z M339.302,418.101c-1.216-0.586-2.534-0.879-3.853-0.879 c-1.319,0-2.638,0.293-3.853,0.879c0.371-2.672-0.5-5.362-2.371-7.31c2.655-0.474,4.948-2.146,6.224-4.526 c1.276,2.379,3.569,4.052,6.224,4.526C339.802,412.739,338.931,415.429,339.302,418.101z"/> </g> </g></symbol><symbol id="rank-4" viewBox="0 0 512 512"><title>rank-4</title><g> <g> <path d="M469.835,1.219c-2.981-1.685-6.342-1.611-9.273,0.157c-0.579,0.352-58.311,35.583-114.288,76.288 c-43.218,31.435-75.686,64.454-89.334,79.084c-14.996-15.472-51.348-51.676-89.033-79.084 C120.194,42.969,54.244,1.84,53.582,1.432c-2.917-1.824-7.19-1.907-10.195-0.241c-3.014,1.667-5.463,4.843-5.463,8.287v75.852 c0,3.713,2.759,7.083,6.134,8.62c0.417,0.194,42.482,19.454,103.19,60.843c60.079,40.963,101.741,96.788,102.153,97.343 c1.704,2.315,4.435,3.731,7.306,3.852c0.134,0.009,0.306,0.009,0.44,0.009c2.722,0,5.338-1.167,7.143-3.222 c0.616-0.704,61.936-70.306,102.524-97.982c41.134-28.046,102.186-60.76,102.801-61.084c3.107-1.639,4.458-4.87,4.458-8.38V9.479 C474.075,6.053,472.821,2.895,469.835,1.219z M455.112,79.655c-14.222,8.491-64.024,35.241-99.565,59.472 c-34.255,23.352-80.102,72.704-98.163,92.621c-14.676-18.111-51.264-59.463-99.894-92.621 c-49.931-34.047-86.38-53.149-100.602-59.769V26.673c23.704,14.037,65.635,41.833,99.311,66.325 c46.662,33.945,93.278,83.621,93.741,84.121c1.828,1.981,4.667,3.213,7.255,3.028c2.69-0.046,5.31-1.231,7.079-3.268 c0.375-0.435,37.977-44.093,92.672-83.88c38.621-28.084,79.204-53.537,98.167-66.463V79.655z"/> </g> </g><g> <g> <path d="M469.835,133.961c-2.981-1.676-6.342-1.611-9.273,0.157c-0.579,0.352-58.311,35.583-114.288,76.287 c-43.218,31.435-75.686,64.454-89.334,79.084c-14.996-15.472-51.348-51.676-89.033-79.084 c-47.713-34.695-113.663-75.825-114.325-76.232c-2.917-1.824-7.19-1.917-10.195-0.241c-3.014,1.667-5.463,4.843-5.463,8.287 v75.852c0,3.713,2.759,7.083,6.134,8.62c0.417,0.194,42.482,19.454,103.19,60.843c60.079,40.963,101.741,96.788,102.153,97.343 c1.704,2.315,4.435,3.731,7.306,3.852c0.134,0.009,0.306,0.009,0.44,0.009c2.722,0,5.338-1.167,7.143-3.222 c0.616-0.704,61.936-70.306,102.524-97.982c41.134-28.046,102.186-60.76,102.801-61.084c3.107-1.639,4.458-4.87,4.458-8.38V142.22 C474.075,138.794,472.821,135.637,469.835,133.961z M455.112,212.397c-14.222,8.491-64.024,35.241-99.565,59.472 c-34.255,23.352-80.102,72.704-98.163,92.621c-14.676-18.111-51.264-59.463-99.894-92.621 c-49.931-34.047-86.38-53.148-100.602-59.769v-52.686c23.704,14.037,65.635,41.833,99.311,66.325 c46.662,33.945,93.278,83.621,93.741,84.121c1.828,1.981,4.667,3.269,7.255,3.028c2.69-0.046,5.31-1.231,7.079-3.269 c0.375-0.435,37.977-44.093,92.672-83.88c38.621-28.084,79.204-53.537,98.167-66.463V212.397z"/> </g> </g><g> <g> <path d="M469.835,257.221c-2.981-1.676-6.342-1.62-9.273,0.157c-0.579,0.352-58.311,35.584-114.288,76.288 c-43.218,31.435-75.686,64.454-89.334,79.084c-14.996-15.472-51.348-51.676-89.033-79.084 c-47.713-34.695-113.663-75.825-114.325-76.232c-2.917-1.815-7.19-1.907-10.195-0.241c-3.014,1.666-5.463,4.843-5.463,8.287 v75.852c0,3.713,2.759,7.083,6.134,8.62c0.417,0.194,42.482,19.454,103.19,60.843c60.079,40.963,101.741,96.788,102.153,97.343 c1.704,2.315,4.435,3.731,7.306,3.852c0.134,0.009,0.306,0.009,0.44,0.009c2.722,0,5.338-1.167,7.143-3.222 c0.616-0.704,61.936-70.306,102.524-97.982c41.134-28.046,102.186-60.76,102.801-61.084c3.107-1.639,4.458-4.87,4.458-8.38V265.48 C474.075,262.054,472.821,258.897,469.835,257.221z M455.112,335.656c-14.222,8.491-64.024,35.241-99.565,59.472 c-34.255,23.352-80.102,72.704-98.163,92.621c-14.676-18.111-51.264-59.463-99.894-92.621 c-49.931-34.047-86.38-53.148-100.602-59.769v-52.686c23.704,14.037,65.635,41.833,99.311,66.325 c46.662,33.945,93.278,83.621,93.741,84.121c1.828,1.972,4.667,3.037,7.255,3.028c2.69-0.046,5.31-1.231,7.079-3.268 c0.375-0.435,37.977-44.093,92.672-83.88c38.621-28.083,79.204-53.537,98.167-66.463V335.656z"/> </g> </g></symbol><symbol id="rank-5" viewBox="0 0 512 512"><title>rank-5</title><g> <g> <path d="M473.141,165.112c-0.425-0.198-42.678-19.82-104.53-61.989C307.4,61.389,265.254,4.512,264.835,3.946 c-1.736-2.359-4.368-3.802-7.292-3.924c-2.953-0.207-5.703,1.075-7.632,3.274c-0.627,0.717-63.074,71.63-104.427,99.828 c-41.909,28.575-105.304,61.904-105.931,62.234c-3.165,1.67-5.736,4.962-5.736,8.538v77.281c0,3.49,2.486,6.707,5.528,8.415 c1.471,0.83,3.405,1.245,5.038,1.245c1.74,0,3.627-0.472,5.165-1.406c0.589-0.359,59.635-36.244,116.662-77.725 c44.032-32.018,77.229-65.659,91.134-80.574c15.278,15.773,52.372,52.659,90.762,80.574 c48.617,35.358,115.837,77.253,116.511,77.668c2.981,1.859,6.137,1.953,9.193,0.245c3.07-1.698,4.372-4.934,4.372-8.443v-77.281 C478.183,170.112,476.579,166.678,473.141,165.112z M458.863,233.658c-21.735-14.302-65.654-42.612-99.979-67.574 c-47.537-34.575-94.427-85.196-94.899-85.705c-1.863-2.009-4.042-2.745-7.094-3.085c-2.74,0.047-5.259,1.255-7.056,3.33 c-0.387,0.443-39.726,44.857-95.554,85.46c-39.344,28.612-79.409,54.546-101.144,67.725v-54.131 c16.905-8.651,66.437-35.905,102.648-60.593c34.9-23.792,82.215-74.074,100.615-94.366c14.952,18.452,51.324,60.583,100.87,94.366 c50.871,34.688,89.517,54.15,101.592,60.895V233.658z"/> </g> </g><g> <g> <path d="M473.141,300.354c-0.425-0.198-42.678-19.82-104.53-61.989c-61.211-41.734-103.356-98.61-103.776-99.177 c-1.736-2.359-4.368-3.802-7.292-3.924c-2.953-0.17-5.703,1.075-7.632,3.274c-0.627,0.717-63.074,71.63-104.427,99.828 C103.575,266.94,40.18,300.269,39.553,300.599c-3.165,1.67-5.736,4.962-5.736,8.538v77.262l0.495,48.301 c-0.009,3.311,1.981,6.396,4.778,8.17C43.524,445.69,149.144,512,257,512c107.861,0,212.801-66.31,217.235-69.13 c2.788-1.774,3.948-4.849,3.948-8.151v-48.301v-77.281C478.183,305.354,476.579,301.92,473.141,300.354z M458.863,429.285 c-19.32,12.443-112.059,63.395-202.316,63.395c-90.106,0-181.529-50.942-202.599-63.395l0.208-25.99 c33.287,18.66,116.808,60.404,202.372,60.404c85.531,0,170.939-41.716,202.335-60.376V429.285z M63.408,386.166 c20.83-13.077,62.333-39.728,102.877-69.218c44.032-32.018,77.192-65.659,91.097-80.574 c15.278,15.773,52.352,52.659,90.743,80.574c35.466,25.792,80.797,55.046,103.005,69.156 c-31.407,17.509-113.207,58.275-193.922,58.275C176.705,444.379,94.933,403.708,63.408,386.166z M458.863,368.9 c-21.735-14.302-65.654-42.612-99.979-67.574c-47.537-34.575-94.427-85.196-94.899-85.705c-1.863-2-4.042-3.189-7.094-3.085 c-2.74,0.047-5.259,1.255-7.056,3.33c-0.387,0.443-39.726,44.857-95.554,85.46c-39.344,28.613-79.409,54.546-101.144,67.725 V314.92c16.905-8.651,66.437-35.905,102.648-60.593c34.9-23.792,82.215-74.074,100.615-94.366 c14.952,18.452,51.324,60.583,100.87,94.366c50.871,34.688,89.517,54.15,101.592,60.895V368.9z"/> </g> </g><g> <g> <path d="M330.706,333.552c-1.137-3.49-4.16-6.038-7.802-6.566l-39.409-5.726l-17.622-35.716c-3.255-6.604-14.075-6.604-17.33,0 l-17.622,35.716l-39.409,5.726c-3.641,0.528-6.665,3.076-7.802,6.566c-1.137,3.5-0.189,7.339,2.443,9.905l28.523,27.801 l-6.736,39.254c-0.618,3.623,0.873,7.283,3.844,9.443c2.981,2.179,6.929,2.453,10.174,0.736l35.249-18.528l35.249,18.528 c1.415,0.745,2.957,1.113,4.495,1.113c2,0,3.995-0.623,5.679-1.849c2.972-2.16,4.462-5.82,3.844-9.443l-6.736-39.254 l28.523-27.801C330.894,340.891,331.843,337.051,330.706,333.552z M282.617,360.975c-2.273,2.217-3.311,5.415-2.778,8.547 l4.283,24.962l-22.419-11.783c-1.406-0.745-2.953-1.113-4.495-1.113s-3.09,0.368-4.495,1.113l-22.419,11.783l4.283-24.962 c0.533-3.132-0.505-6.33-2.778-8.547l-18.141-17.688l25.065-3.641c3.146-0.453,5.868-2.434,7.278-5.283l11.207-22.716 l11.207,22.716c1.41,2.849,4.132,4.83,7.278,5.283l25.065,3.641L282.617,360.975z"/> </g> </g></symbol><symbol id="rank-6" viewBox="0 0 512 512"><title>rank-6</title><g> <g> <path d="M184.827,58.35c-1.026-3.138-3.74-5.428-7.014-5.903l-12.603-1.832l-5.64-11.424c-2.917-5.937-12.654-5.937-15.571,0 l-5.64,11.424l-12.603,1.832c-3.274,0.475-5.988,2.765-7.014,5.903c-1.018,3.146-0.17,6.598,2.197,8.905l9.126,8.897 l-2.154,12.552c-0.56,3.257,0.78,6.547,3.452,8.489c2.697,1.951,6.225,2.214,9.151,0.662l11.271-5.928l11.271,5.928 c1.272,0.67,2.663,1.001,4.045,1.001c1.798,0,3.587-0.56,5.106-1.662c2.671-1.942,4.011-5.233,3.452-8.489l-2.154-12.552 l9.126-8.897C184.997,64.948,185.845,61.496,184.827,58.35z M155.576,74.294c-1.196-0.577-2.493-0.865-3.791-0.865 c-1.298,0-2.595,0.288-3.791,0.865c0.365-2.629-0.492-5.275-2.332-7.192c2.612-0.466,4.868-2.112,6.123-4.452 c1.255,2.341,3.511,3.986,6.123,4.452C156.068,69.018,155.211,71.665,155.576,74.294z"/> </g> </g><g> <g> <path d="M297.727,23.611c-1.026-3.138-3.74-5.428-7.014-5.903l-12.603-1.832l-5.64-11.424c-2.917-5.937-12.654-5.937-15.571,0 l-5.64,11.424l-12.603,1.832c-3.274,0.475-5.988,2.765-7.014,5.903c-1.018,3.146-0.17,6.598,2.197,8.905l9.126,8.897 l-2.154,12.552c-0.56,3.257,0.78,6.547,3.452,8.489c2.68,1.959,6.233,2.205,9.151,0.662l11.271-5.928l11.271,5.928 c1.272,0.67,2.663,1.001,4.045,1.001c1.798,0,3.587-0.56,5.106-1.662c2.671-1.942,4.011-5.233,3.452-8.489l-2.154-12.552 l9.126-8.897C297.896,30.209,298.744,26.758,297.727,23.611z M268.476,39.555c-1.196-0.577-2.493-0.865-3.791-0.865 c-1.298,0-2.595,0.288-3.791,0.865c0.365-2.629-0.492-5.275-2.332-7.192c2.612-0.466,4.868-2.112,6.123-4.452 c1.255,2.341,3.511,3.986,6.123,4.452C268.968,34.28,268.111,36.926,268.476,39.555z"/> </g> </g><g> <g> <path d="M401.942,58.349c-1.026-3.138-3.74-5.428-7.014-5.903l-12.603-1.832l-5.64-11.424c-2.917-5.937-12.654-5.937-15.571,0 l-5.64,11.424l-12.603,1.832c-3.274,0.475-5.988,2.765-7.014,5.903c-1.018,3.146-0.17,6.598,2.197,8.905l9.126,8.897 l-2.154,12.552c-0.56,3.257,0.78,6.547,3.452,8.489c2.688,1.951,6.225,2.214,9.151,0.662l11.271-5.928l11.271,5.928 c1.272,0.67,2.663,1.001,4.045,1.001c1.798,0,3.587-0.56,5.106-1.662c2.671-1.942,4.011-5.233,3.452-8.489l-2.154-12.552 l9.125-8.897C402.111,64.948,402.959,61.496,401.942,58.349z M372.691,74.294c-1.196-0.577-2.493-0.865-3.791-0.865 s-2.595,0.288-3.791,0.865c0.365-2.629-0.492-5.275-2.332-7.192c2.612-0.466,4.868-2.112,6.123-4.452 c1.255,2.341,3.511,3.986,6.123,4.452C373.183,69.018,372.326,71.665,372.691,74.294z"/> </g> </g><g> <g> <path d="M419.921,174.124v-52.93c0-4.8-2.799-7.862-7.599-7.862H99.678c-4.8,0-9.77,3.062-9.77,7.862v52.107v17.369v312.645 c0,3.367,2.493,6.437,5.547,7.862c3.028,1.433,6.921,0.967,9.516-1.187l150.895-125.638L406.691,509.99 c1.594,1.323,3.604,2.01,5.597,2.01c1.247,0,1.984-0.271,3.155-0.823c3.053-1.425,4.478-4.495,4.478-7.862V191.493h2.171v-17.369 H419.921z M402.552,484.776L261.021,366.372c-1.611-1.34-3.316-2.01-5.292-2.01c-1.976,0-4.359,0.67-5.971,2.01L107.277,484.776 V191.493h295.276V484.776z M402.552,174.124H107.277v-43.423h295.276V174.124z"/> </g> </g><g> <g> <path d="M330.336,262.055c-1.026-3.146-3.74-5.436-7.014-5.911l-41.133-5.988l-18.404-37.274c-2.917-5.937-12.654-5.937-15.571,0 l-18.404,37.274l-41.133,5.988c-3.274,0.475-5.988,2.765-7.014,5.911c-1.018,3.138-0.17,6.59,2.197,8.897l29.769,29.022 l-7.022,40.972c-0.56,3.257,0.78,6.548,3.452,8.49c2.68,1.951,6.234,2.205,9.151,0.662L256,330.752l36.791,19.345 c1.272,0.67,2.663,1.001,4.045,1.001c1.798,0,3.587-0.56,5.106-1.662c2.671-1.942,4.011-5.233,3.452-8.49l-7.022-40.972 l29.769-29.022C330.506,268.645,331.354,265.193,330.336,262.055z M282.978,290.721c-2.044,1.993-2.977,4.868-2.494,7.684 l4.817,28.132l-25.257-13.281c-1.272-0.67-2.655-1.001-4.045-1.001s-2.773,0.331-4.045,1.001l-25.256,13.281l4.817-28.132 c0.483-2.816-0.45-5.691-2.494-7.684l-20.439-19.922l28.242-4.113c2.833-0.407,5.275-2.188,6.539-4.749L256,236.341l12.637,25.596 c1.264,2.561,3.706,4.342,6.539,4.749l28.242,4.113L282.978,290.721z"/> </g> </g></symbol><symbol id="medal" viewBox="0 0 512 512"><title>medal</title><path d="M364.672,382.509c-1.124-3.448-4.098-5.957-7.685-6.477l-64.436-9.274l-28.157-55.852v-36.325 c49.958-4.786,85.642-45.377,85.642-94.589V8.614c0-5.26-3.067-8.614-8.326-8.614H170.425c-5.26,0-10.705,3.355-10.705,8.614 v171.377c0,49.212,38.063,89.803,85.642,94.589v36.325l-26.968,55.852l-63.544,9.274c-3.587,0.521-6.412,3.029-7.536,6.477 c-1.115,3.438-0.112,7.22,2.481,9.748l46.241,45.033l-10.891,63.581c-0.613,3.568,0.864,7.174,3.792,9.302 c2.946,2.137,6.825,2.426,10.031,0.725l57.097-30.016l57.097,30.016c1.394,0.734,2.918,1.097,4.433,1.097 c1.97,0,3.94-0.614,5.594-1.822c2.927-2.128,4.396-5.734,3.782-9.302l-10.91-63.581l46.203-45.033 C364.858,389.73,365.787,385.948,364.672,382.509z M292.941,19.032h38.063v160.96c0,28.083-14.274,52.639-38.063,65.804V19.032z M216.815,245.796c-21.411-13.166-38.063-37.722-38.063-65.804V19.032h38.063V245.796z M235.846,253.618V19.032h38.063v234.587 c-4.758,1.57-12.462,2.407-19.032,2.407C248.308,256.025,242.983,255.189,235.846,253.618z M299.195,427.161 c-2.24,2.184-3.262,5.334-2.732,8.419l8.494,49.503L260.5,461.711c-1.394-0.734-2.909-1.096-4.433-1.096 c-1.524,0-3.039,0.362-4.433,1.096l-44.457,23.372l8.494-49.503c0.53-3.085-0.492-6.235-2.732-8.419l-35.972-35.071l49.707-7.22 c3.104-0.446,5.78-2.398,7.165-5.204l22.228-45.042l22.228,45.042c1.385,2.806,4.061,4.758,7.165,5.204l49.707,7.22 L299.195,427.161z"/></symbol><symbol id="rank-7" viewBox="0 0 512 512"><title>rank-7</title><g> <g> <path d="M448.45,171.767c-2.683-1.508-5.712-1.45-8.346,0.142c-0.521,0.317-52.479,32.025-102.858,68.658 c-38.896,28.292-68.117,58.008-80.4,71.175c-13.496-13.925-46.212-46.508-80.129-71.175 c-42.942-31.225-102.296-68.242-102.892-68.608c-2.629-1.634-6.471-1.725-9.175-0.217c-2.713,1.5-4.917,4.358-4.917,7.458v68.267 c0,3.342,2.483,6.375,5.521,7.758c0.375,0.175,38.233,17.508,92.871,54.758c54.071,36.867,91.567,87.108,91.938,87.608 c1.533,2.083,3.992,3.358,6.575,3.467c0.121,0.008,0.275,0.008,0.396,0.008c2.45,0,4.804-1.05,6.429-2.9 c0.554-0.633,55.742-63.275,92.271-88.183c37.021-25.242,91.967-54.683,92.521-54.975c2.796-1.475,4.013-4.383,4.013-7.542V179.2 C452.267,176.117,451.138,173.275,448.45,171.767z M435.2,242.358c-12.8,7.642-57.621,31.717-89.608,53.525 c-30.829,21.017-72.092,65.433-88.346,83.358c-13.208-16.3-46.138-53.517-89.904-83.358C122.404,265.242,89.6,248.05,76.8,242.092 v-47.417c21.333,12.633,59.071,37.65,89.379,59.692c41.996,30.55,83.95,75.258,84.367,75.708c1.65,1.775,4.225,2.683,6.529,2.725 c2.421-0.042,4.779-1.108,6.371-2.942c0.338-0.392,34.179-39.683,83.404-75.492c34.758-25.275,71.283-48.183,88.35-59.817V242.358 z"/> </g> </g><g> <g> <path d="M448.45,282.7c-2.683-1.508-5.712-1.458-8.346,0.142c-0.521,0.317-52.479,32.025-102.858,68.658 c-38.896,28.292-68.117,58.008-80.4,71.175c-13.496-13.925-46.212-46.508-80.129-71.175 c-42.942-31.225-102.296-68.242-102.892-68.608c-2.629-1.642-6.471-1.725-9.175-0.217c-2.713,1.5-4.917,4.358-4.917,7.458V358.4 c0,3.342,2.483,6.375,5.521,7.758c0.375,0.175,38.233,17.508,92.871,54.758c54.071,36.867,91.567,87.108,91.938,87.608 c1.533,2.083,3.992,3.358,6.575,3.467c0.121,0.008,0.275,0.008,0.396,0.008c2.45,0,4.804-1.05,6.429-2.9 c0.554-0.633,55.742-63.275,92.271-88.183c37.021-25.242,91.967-54.683,92.521-54.975c2.796-1.475,4.013-4.383,4.013-7.542 v-68.267C452.267,287.05,451.138,284.208,448.45,282.7z M435.2,353.292c-12.8,7.642-57.621,31.717-89.608,53.525 c-30.829,21.017-72.092,65.433-88.346,83.358c-13.208-16.3-46.138-53.517-89.904-83.358 C122.404,376.175,89.6,358.983,76.8,353.025v-47.417c21.333,12.633,59.071,37.65,89.379,59.692 c41.996,30.55,83.95,75.258,84.367,75.708c1.65,1.783,4.225,2.916,6.529,2.725c2.421-0.042,4.779-1.108,6.371-2.942 c0.338-0.392,34.179-39.683,83.404-75.492c34.758-25.275,71.283-48.183,88.35-59.817V353.292z"/> </g> </g><g> <g> <path d="M448.45,60.833c-2.683-1.517-5.712-1.45-8.346,0.142c-0.28,0.171-15.426,9.473-37.332,23.742 C376.813,32.958,323.999,0,265.533,0C203.65,0,148.147,37.162,124.204,93.481C96.829,75.375,74.192,61.25,73.825,61.025 c-2.629-1.642-6.471-1.717-9.175-0.217c-2.713,1.5-4.917,4.358-4.917,7.458v68.267c0,3.342,2.483,6.375,5.521,7.758 c0.375,0.175,38.233,17.508,92.871,54.758c54.071,36.867,91.567,87.108,91.938,87.608c1.533,2.083,3.992,3.358,6.575,3.467 c0.121,0.008,0.275,0.008,0.396,0.008c2.45,0,4.804-1.05,6.429-2.9c0.554-0.633,55.742-63.275,92.271-88.183 c37.021-25.242,91.967-54.683,92.521-54.975c2.796-1.475,4.013-4.383,4.013-7.542V68.267 C452.267,65.183,451.138,62.342,448.45,60.833z M265.6,17.067c52.644,0,100.196,30.054,122.94,77.104 c-15.75,10.469-33.555,22.662-51.16,35.462c-38.896,28.292-68.183,58.008-80.467,71.175 c-13.496-13.925-46.246-46.508-80.162-71.175c-11.949-8.69-25.169-17.825-38.042-26.496C159.27,51.41,209.505,17.067,265.6,17.067 z M435.2,131.425c-12.8,7.642-57.621,31.717-89.608,53.525c-30.829,21.017-72.092,65.433-88.346,83.358 c-13.208-16.3-46.138-53.517-89.904-83.358C122.404,154.308,89.6,137.117,76.8,131.158V83.742 c21.333,12.633,59.071,37.65,89.379,59.692c41.996,30.55,83.95,75.258,84.367,75.708c1.65,1.783,4.225,2.892,6.529,2.725 c2.421-0.042,4.779-1.108,6.371-2.942c0.338-0.392,34.179-39.683,83.404-75.492c34.758-25.275,71.283-48.183,88.35-59.817V131.425 z"/> </g> </g><g> <g> <path d="M321.992,72.767c-1.004-3.083-3.675-5.333-6.892-5.8l-34.812-5.058l-15.567-31.55c-2.875-5.833-12.433-5.833-15.308,0 l-15.567,31.55l-34.812,5.058c-3.217,0.467-5.888,2.717-6.892,5.8c-1.004,3.092-0.167,6.483,2.158,8.75l25.196,24.558 l-5.95,34.675c-0.546,3.2,0.771,6.433,3.396,8.342c2.637,1.917,6.117,2.175,8.987,0.65l31.137-16.367l31.138,16.367 c1.25,0.658,2.612,0.983,3.971,0.983c1.767,0,3.529-0.55,5.017-1.633c2.625-1.908,3.942-5.142,3.396-8.342l-5.95-34.675 l25.196-24.558C322.158,79.25,322.996,75.858,321.992,72.767z M279.513,96.992c-2.008,1.958-2.925,4.783-2.454,7.55l3.783,22.05 l-19.804-10.408c-1.242-0.658-2.608-0.983-3.971-0.983c-1.363,0-2.729,0.325-3.971,0.983l-19.804,10.408l3.783-22.05 c0.471-2.767-0.446-5.592-2.454-7.55l-16.025-15.625l22.142-3.217c2.779-0.4,5.183-2.15,6.429-4.667l9.9-20.067l9.9,20.067 c1.246,2.517,3.65,4.267,6.429,4.667l22.142,3.217L279.513,96.992z"/> </g> </g></symbol><symbol id="rank-8" viewBox="0 0 512 512"><title>rank-8</title><g> <g> <path d="M471.941,165.108c-0.425-0.198-42.679-19.821-104.537-61.99C306.188,61.383,264.047,4.506,263.623,3.94 c-1.736-2.359-4.368-3.802-7.283-3.924c-2.896-0.17-5.708,1.075-7.632,3.274c-0.632,0.717-63.084,71.631-104.433,99.829 c-41.905,28.575-105.301,61.905-105.933,62.235c-3.16,1.67-5.736,4.962-5.736,8.538v77.282c0,3.49,2.481,6.707,5.528,8.415 c1.471,0.83,3.405,1.245,5.038,1.245c1.736,0,3.623-0.472,5.16-1.406c0.594-0.359,59.641-36.245,116.668-77.725 c44.037-32.018,77.226-65.66,91.131-80.575c15.283,15.773,52.377,52.66,90.772,80.575 c48.613,35.358,115.838,77.254,116.508,77.669c2.972,1.859,6.118,1.953,9.193,0.245c3.066-1.698,4.372-4.934,4.372-8.443v-77.282 C476.978,170.108,475.375,166.674,471.941,165.108z M457.658,233.654c-21.736-14.302-65.66-42.613-99.98-67.575 c-47.537-34.575-94.433-85.197-94.905-85.707c-1.868-2.009-4.66-2.953-7.085-3.085c-2.745,0.047-5.264,1.255-7.057,3.33 c-0.387,0.443-39.726,44.858-95.555,85.461c-39.349,28.613-79.414,54.547-101.15,67.726v-54.122 c16.905-8.66,66.443-35.915,102.65-60.603c34.896-23.792,82.216-74.075,100.622-94.367c14.943,18.453,51.32,60.584,100.867,94.367 c50.877,34.688,89.518,54.15,101.593,60.895V233.654z"/> </g> </g><g> <g> <path d="M476.978,384.99v-75.855c0-3.783-1.604-7.217-5.038-8.783c-0.425-0.198-42.679-19.821-104.537-61.99 c-61.216-41.735-103.357-98.612-103.782-99.178c-1.736-2.359-4.368-3.802-7.283-3.924c-2.896-0.255-5.708,1.075-7.632,3.274 c-0.632,0.717-63.084,71.631-104.433,99.829c-41.905,28.575-105.301,61.905-105.933,62.235c-3.16,1.67-5.736,4.962-5.736,8.538 v77.282c0,0.477,0.646,0.946,0.715,1.408l0.191,46.875c-0.009,3.311,1.83,6.396,4.623,8.17 C42.578,445.689,148.114,512,255.981,512s213.913-66.31,218.356-69.131c2.783-1.774,5.056-4.849,5.056-8.151v-48.301 C479.393,385.935,479.393,385.459,476.978,384.99z M51.927,314.927c16.905-8.66,66.443-35.915,102.65-60.603 c34.896-23.792,82.216-74.075,100.622-94.367c14.943,18.453,51.32,60.584,100.867,94.367 c50.877,34.688,89.518,54.15,101.593,60.895v53.679c-21.736-14.302-65.66-42.613-99.98-67.575 c-47.537-34.575-94.433-85.197-94.905-85.707c-1.868-2.009-4.66-3.236-7.085-3.085c-2.745,0.047-5.264,1.255-7.057,3.33 c-0.387,0.443-39.726,44.858-95.555,85.461c-39.349,28.613-79.414,54.547-101.15,67.726V314.927z M449.979,386.136 c-31.452,17.528-113.204,58.242-193.866,58.242c-80.558,0-162.383-40.724-193.863-58.247 c20.849-13.092,62.315-39.719,102.827-69.185c44.037-32.018,77.188-65.66,91.093-80.575c15.283,15.773,52.358,52.66,90.754,80.575 C382.414,342.759,427.79,372.039,449.979,386.136z M460.073,429.284c-21.736,12.443-113.216,63.395-203.469,63.395 c-90.112,0-182.111-50.943-203.186-63.395l-0.071-25.99c33.283,18.66,117.817,60.405,203.382,60.405 c85.527,0,169.533-41.716,203.344-60.377V429.284z"/> </g> </g></symbol><symbol id="rank-9" viewBox="0 0 512 512"><title>rank-9</title><path d="M509.232,326.354v-86.951c0-4.335-1.838-8.27-5.778-10.065c-0.487-0.227-48.908-22.714-119.789-71.038 C313.519,110.473,265.222,45.295,264.741,44.646c-1.989-2.703-5.005-4.357-8.357-4.497c-3.373-0.249-6.535,1.232-8.746,3.751 c-0.719,0.821-72.281,82.086-119.67,114.4C79.941,191.046,7.292,229.241,6.573,229.619C2.946,231.532,0,235.305,0,239.403v88.562 c0,0.535,0.738,1.065,0.812,1.586l0.226,53.743c-0.011,3.795,2.097,7.33,5.303,9.362c5.081,3.232,126.033,79.222,249.638,79.222 c123.6,0,245.138-75.989,250.219-79.222c3.195-2.033,5.803-5.557,5.803-9.341v-55.351C512,327.422,512,326.884,509.232,326.354z M22.141,246.03c19.373-9.913,76.135-41.146,117.632-69.438c39.995-27.265,94.216-84.887,115.303-108.141 c17.135,21.146,58.816,69.427,115.595,108.141c58.297,39.751,102.584,62.054,116.422,69.784v61.514 c-24.908-16.389-75.238-48.832-114.573-77.438c-54.476-39.622-108.211-97.632-108.752-98.216c-2.135-2.303-4.481-3.351-8.13-3.535 c-3.14,0.054-6.027,1.438-8.086,3.816c-0.443,0.508-45.525,51.405-109.503,97.935c-45.087,32.789-91,62.508-115.908,77.611V246.03 z M478.288,327.643c-36.042,20.084-129.723,66.743-222.163,66.743c-92.309,0-186.077-46.665-222.155-66.749 c23.891-15,71.412-45.516,117.837-79.284c50.459-36.692,88.46-75.243,104.395-92.335c17.508,18.076,59.994,60.346,103.989,92.335 C400.864,277.935,452.861,311.487,478.288,327.643z M489.859,377.078c-24.908,14.259-129.884,72.659-233.165,72.659 c-103.265,0-208.693-58.379-232.839-72.649l-0.092-29.784c38.146,21.384,135.015,69.222,233.069,69.222 c98.016,0,194.281-47.805,233.027-69.189V377.078z"/></symbol><symbol id="rank-10" viewBox="0 0 512 512"><title>rank-10</title><g> <g> <path d="M444.8,111.742H69.333c-4.713,0-9.6,3.008-9.6,7.725v17.067c0,3.958,3.275,7.408,7.129,8.308 c0.367,0.092,37.521,9.033,91.263,45.675c54.071,36.867,91.567,87.108,91.938,87.608c1.533,2.083,3.992,3.358,6.575,3.467 c0.121,0.008,0.275,0.008,0.396,0.008c2.45,0,4.804-1.05,6.429-2.9c0.554-0.633,55.742-63.275,92.271-88.183 c36.554-24.925,90.992-45.792,91.542-46c3.321-1.25,4.992-4.433,4.992-7.983v-17.067 C452.267,114.75,449.513,111.742,444.8,111.742z M435.2,130.7c-14.933,6.067-57.921,24.108-89.608,45.717 c-30.829,21.017-72.092,65.433-88.346,83.358c-13.208-16.3-46.138-53.517-89.904-83.358 C123.571,146.575,91.733,134.3,76.8,130.083v-1.275h358.4V130.7z"/> </g> </g><g> <g> <path d="M448.45,163.233c-2.683-1.508-5.704-1.458-8.346,0.142c-0.521,0.317-52.479,32.025-102.858,68.658 c-38.896,28.292-68.117,58.008-80.4,71.175c-13.496-13.925-46.212-46.508-80.129-71.175 c-42.942-31.225-102.296-68.242-102.892-68.608c-2.625-1.642-6.475-1.717-9.175-0.217c-2.713,1.5-4.917,4.358-4.917,7.458v68.267 c0,3.342,2.483,6.375,5.521,7.758c0.375,0.175,38.233,17.508,92.871,54.758c54.071,36.867,91.567,87.108,91.938,87.608 c1.533,2.083,3.992,3.358,6.575,3.467c0.121,0.008,0.275,0.008,0.396,0.008c2.45,0,4.804-1.05,6.429-2.9 c0.554-0.633,55.742-63.275,92.271-88.183c37.021-25.242,91.967-54.683,92.521-54.975c2.796-1.475,4.013-4.383,4.013-7.542 v-68.267C452.267,167.583,451.138,164.742,448.45,163.233z M435.2,233.825c-12.8,7.642-57.621,31.717-89.608,53.525 c-30.829,21.017-72.092,65.433-88.346,83.358c-13.208-16.3-46.138-53.517-89.904-83.358 C122.404,256.708,89.6,239.517,76.8,233.558v-47.417c21.333,12.633,59.071,37.65,89.379,59.692 c41.996,30.55,83.95,75.258,84.367,75.708c1.646,1.775,4.188,2.725,6.529,2.725c2.421-0.042,4.779-1.108,6.371-2.942 c0.338-0.392,34.179-39.683,83.404-75.492c34.758-25.275,71.283-48.183,88.35-59.817V233.825z"/> </g> </g><g> <g> <path d="M448.45,282.7c-2.683-1.508-5.704-1.45-8.346,0.142c-0.521,0.317-52.479,32.025-102.858,68.658 c-38.896,28.292-68.117,58.008-80.4,71.175c-13.496-13.925-46.212-46.508-80.129-71.175 c-42.942-31.225-102.296-68.242-102.892-68.608c-2.625-1.633-6.475-1.725-9.175-0.217c-2.713,1.5-4.917,4.358-4.917,7.458V358.4 c0,3.342,2.483,6.375,5.521,7.758c0.375,0.175,38.233,17.508,92.871,54.758c54.071,36.867,91.567,87.108,91.938,87.608 c1.533,2.083,3.992,3.358,6.575,3.467c0.121,0.008,0.275,0.008,0.396,0.008c2.45,0,4.804-1.05,6.429-2.9 c0.554-0.633,55.742-63.275,92.271-88.183c37.021-25.242,91.967-54.683,92.521-54.975c2.796-1.475,4.013-4.383,4.013-7.542 v-68.267C452.267,287.05,451.138,284.208,448.45,282.7z M435.2,353.292c-12.8,7.642-57.621,31.717-89.608,53.525 c-30.829,21.017-72.092,65.433-88.346,83.358c-13.208-16.3-46.138-53.517-89.904-83.358 C122.404,376.175,89.6,358.983,76.8,353.025v-47.417c21.333,12.633,59.071,37.65,89.379,59.692 c41.996,30.55,83.95,75.258,84.367,75.708c1.646,1.775,4.188,2.766,6.529,2.725c2.421-0.042,4.779-1.108,6.371-2.942 c0.338-0.392,34.179-39.683,83.404-75.492c34.758-25.275,71.283-48.183,88.35-59.817V353.292z"/> </g> </g><g> <g> <path d="M169.229,35.383c-1.004-3.092-3.675-5.342-6.888-5.808l-23.604-3.433l-10.55-21.383C126.75,1.842,123.783,0,120.533,0 c-3.246,0-6.212,1.842-7.65,4.758l-10.559,21.383l-23.6,3.433c-3.212,0.467-5.883,2.717-6.888,5.808 c-1.004,3.083-0.167,6.475,2.163,8.742l17.075,16.65l-4.029,23.5c-0.55,3.2,0.763,6.433,3.392,8.342 c2.637,1.917,6.121,2.167,8.987,0.65l21.108-11.092l21.108,11.092c1.25,0.658,2.612,0.983,3.971,0.983 c1.767,0,3.529-0.55,5.016-1.633c2.629-1.909,3.942-5.142,3.392-8.342l-4.029-23.5l17.075-16.65 C169.396,41.858,170.233,38.467,169.229,35.383z M134.867,51.683c-2.013,1.958-2.933,4.783-2.454,7.55l1.867,10.883l-9.775-5.133 c-1.242-0.658-2.608-0.983-3.971-0.983s-2.729,0.325-3.971,0.983l-9.775,5.133l1.867-10.883c0.479-2.767-0.442-5.592-2.454-7.55 l-7.904-7.708l10.925-1.592c2.779-0.4,5.179-2.15,6.421-4.667l4.892-9.9l4.883,9.9c1.246,2.517,3.646,4.267,6.425,4.667 l10.929,1.592L134.867,51.683z"/> </g> </g><g> <g> <path d="M305.763,35.383c-1.004-3.092-3.675-5.342-6.888-5.808l-23.604-3.433l-10.55-21.383C263.283,1.842,260.317,0,257.067,0 c-3.246,0-6.212,1.842-7.65,4.758l-10.559,21.383l-23.6,3.433c-3.212,0.467-5.883,2.717-6.887,5.808 c-1.004,3.083-0.167,6.475,2.163,8.742l17.075,16.65l-4.029,23.5c-0.55,3.2,0.763,6.433,3.392,8.342 c2.633,1.917,6.121,2.167,8.987,0.65l21.108-11.092l21.108,11.092c1.25,0.658,2.612,0.983,3.971,0.983 c1.767,0,3.529-0.55,5.017-1.633c2.629-1.909,3.942-5.142,3.392-8.342l-4.029-23.5l17.075-16.65 C305.929,41.858,306.767,38.467,305.763,35.383z M271.4,51.683c-2.013,1.958-2.933,4.783-2.454,7.55l1.867,10.883l-9.775-5.133 c-1.242-0.658-2.608-0.983-3.971-0.983c-1.363,0-2.729,0.325-3.971,0.983l-9.775,5.133l1.867-10.883 c0.479-2.767-0.442-5.592-2.454-7.55l-7.904-7.708l10.925-1.592c2.779-0.4,5.179-2.15,6.421-4.667l4.892-9.9l4.883,9.9 c1.246,2.517,3.646,4.267,6.425,4.667l10.929,1.592L271.4,51.683z"/> </g> </g><g> <g> <path d="M433.763,35.383c-1.004-3.092-3.675-5.342-6.887-5.808l-23.604-3.433l-10.55-21.383C391.283,1.842,388.317,0,385.067,0 c-3.246,0-6.212,1.842-7.65,4.758l-10.559,21.383l-23.6,3.433c-3.212,0.467-5.883,2.717-6.887,5.808 c-1.004,3.083-0.167,6.475,2.163,8.742l17.075,16.65l-4.029,23.5c-0.55,3.2,0.763,6.433,3.392,8.342 c2.637,1.917,6.121,2.167,8.988,0.65l21.108-11.092l21.108,11.092c1.25,0.658,2.612,0.983,3.971,0.983 c1.767,0,3.529-0.55,5.017-1.633c2.629-1.909,3.942-5.142,3.392-8.342l-4.029-23.5l17.075-16.65 C433.929,41.858,434.767,38.467,433.763,35.383z M399.4,51.683c-2.013,1.958-2.933,4.783-2.454,7.55l1.867,10.883l-9.775-5.133 c-1.242-0.658-2.608-0.983-3.971-0.983c-1.363,0-2.729,0.325-3.971,0.983l-9.775,5.133l1.867-10.883 c0.479-2.767-0.442-5.592-2.454-7.55l-7.904-7.708l10.925-1.592c2.779-0.4,5.179-2.15,6.421-4.667l4.892-9.9l4.883,9.9 c1.246,2.517,3.646,4.267,6.425,4.667l10.929,1.592L399.4,51.683z"/> </g> </g></symbol><symbol id="token" viewBox="0 0 296.477 296.477"><title>token</title><path d="M244.63,35.621c-21.771-18.635-47.382-29.855-73.767-33.902C121.871-5.797,70.223,11.421,35.622,51.847 c-53.236,62.198-45.972,155.773,16.226,209.01c21.771,18.634,47.381,29.853,73.766,33.901 c48.991,7.517,100.641-9.703,135.241-50.13C314.091,182.431,306.826,88.856,244.63,35.621z M273.361,191.241l-45.305-15.618 c6.102-17.803,6.028-37.107,0.014-54.724l45.257-15.575c3.577,10.453,5.862,21.429,6.74,32.741 C281.489,156.374,279.152,174.388,273.361,191.241z M275.905,104.058c0-0.003,0-0.005,0-0.008 C275.905,104.053,275.905,104.055,275.905,104.058z M247.935,61.472l-36.069,31.332c-2.669-3.055-5.579-5.961-8.752-8.677 c-11.467-9.814-24.81-15.995-38.637-18.692l9.095-46.741c22.33,4.33,43.21,14.294,60.635,29.209 C239.147,52.131,243.728,56.669,247.935,61.472z M103.251,23.983c6.428-2.315,13.021-4.109,19.71-5.388l9.087,46.843 c-17.789,3.467-34.584,12.651-47.393,27.341L48.55,61.38C63.334,44.416,82.206,31.568,103.251,23.983z M23.124,105.236 l45.297,15.617c-6.102,17.803-6.028,37.105-0.015,54.723l-45.295,15.588c-3.562-10.441-5.837-21.4-6.713-32.688 C14.976,140.151,17.32,122.11,23.124,105.236z M48.467,235.066l36.145-31.395c2.669,3.056,5.58,5.964,8.754,8.68 c11.466,9.814,24.808,15.993,38.634,18.691l-9.143,46.997c-22.325-4.348-43.185-14.422-60.604-29.333 C57.288,244.458,52.689,239.898,48.467,235.066z M193.203,272.635c-6.409,2.309-12.986,4.11-19.658,5.403l-9.117-47 c17.789-3.467,34.585-12.651,47.394-27.342l36.121,31.409C233.154,252.087,214.257,265.047,193.203,272.635z"/><circle cx="93.372" cy="53.498" r="8"/><circle cx="38.758" cy="148.382" r="8"/><circle cx="93.623" cy="243.123" r="8"/><circle cx="203.105" cy="242.977" r="8.001"/><circle cx="257.717" cy="148.091" r="8"/><circle cx="202.853" cy="53.351" r="8"/></symbol></svg>